<?xml version="1.0" encoding="UTF-8" standalone="no"?>
<!-- Created with Inkscape (http://www.inkscape.org/) -->

<svg
   xmlns:dc="http://purl.org/dc/elements/1.1/"
   xmlns:cc="http://creativecommons.org/ns#"
   xmlns:rdf="http://www.w3.org/1999/02/22-rdf-syntax-ns#"
   xmlns:svg="http://www.w3.org/2000/svg"
   xmlns="http://www.w3.org/2000/svg"
   xmlns:sodipodi="http://sodipodi.sourceforge.net/DTD/sodipodi-0.dtd"
   xmlns:inkscape="http://www.inkscape.org/namespaces/inkscape"
   width="24.000031"
   height="24"
   id="svg3356"
   version="1.1"
   inkscape:version="0.48.4 r9939"
   sodipodi:docname="New document 3">
  <defs
     id="defs3358" />
  <sodipodi:namedview
     id="base"
     pagecolor="#ffffff"
     bordercolor="#666666"
     borderopacity="1.0"
     inkscape:pageopacity="0.0"
     inkscape:pageshadow="2"
     inkscape:zoom="2.8"
     inkscape:cx="-3.6244222"
     inkscape:cy="-3.1982204"
     inkscape:document-units="px"
     inkscape:current-layer="layer1"
     showgrid="false"
     fit-margin-top="0"
     fit-margin-left="0"
     fit-margin-right="0"
     fit-margin-bottom="0"
     inkscape:window-width="1366"
     inkscape:window-height="713"
     inkscape:window-x="0"
     inkscape:window-y="27"
     inkscape:window-maximized="1" />
  <metadata
     id="metadata3361">
    <rdf:RDF>
      <cc:Work
         rdf:about="">
        <dc:format>image/svg+xml</dc:format>
        <dc:type
           rdf:resource="http://purl.org/dc/dcmitype/StillImage" />
        <dc:title></dc:title>
      </cc:Work>
    </rdf:RDF>
  </metadata>
  <g
     inkscape:label="Layer 1"
     inkscape:groupmode="layer"
     id="layer1"
     transform="translate(-354.63813,-521.7929)">
    <path
       inkscape:connector-curvature="0"
       d="m 366.63702,521.7929 c -6.62635,0 -11.99889,5.50851 -11.99889,12.30407 0,5.43599 3.43804,10.04718 8.20652,11.67489 0.60038,0.11253 0.81917,-0.26739 0.81917,-0.59368 0,-0.29156 -0.0103,-1.06575 -0.0162,-2.09223 -3.33785,0.74323 -4.04211,-1.6496 -4.04211,-1.6496 -0.54588,-1.42074 -1.33264,-1.79916 -1.33264,-1.79916 -1.08954,-0.76362 0.0825,-0.74852 0.0825,-0.74852 1.20447,0.0876 1.838,1.26818 1.838,1.26818 1.07038,1.87998 2.80892,1.33691 3.49255,1.0227 0.10903,-0.79535 0.41844,-1.33767 0.76173,-1.64508 -2.66455,-0.31043 -5.46611,-1.36637 -5.46611,-6.08103 0,-1.34295 0.46779,-2.44118 1.2354,-3.30148 -0.12376,-0.31119 -0.53556,-1.56199 0.11713,-3.25616 0,0 1.00777,-0.33082 3.30029,1.26137 0.95694,-0.27266 1.98386,-0.40937 3.00414,-0.41391 1.01882,0.005 2.04574,0.14125 3.00414,0.41391 2.29105,-1.59219 3.29661,-1.26137 3.29661,-1.26137 0.6549,1.69417 0.2431,2.94497 0.11934,3.25616 0.76908,0.8603 1.23392,1.95853 1.23392,3.30148 0,4.72675 -2.80597,5.76682 -5.47936,6.07121 0.43096,0.37993 0.81476,1.13071 0.81476,2.27879 0,1.64431 -0.0147,2.9714 -0.0147,3.37474 0,0.32932 0.21584,0.71226 0.82507,0.59216 4.76478,-1.63072 8.19988,-6.23889 8.19988,-11.67337 0,-6.79556 -5.37328,-12.30407 -12.00111,-12.30407"
       style="fill:#1b1817;fill-opacity:1;fill-rule:evenodd;stroke:none"
       id="path24" />
  </g>
</svg>
